#!OML:ASF X:\für Bonn\!DataBase\2005_08_12_Daniel\c3d\Daniel.ASF
:FULLY-SPECIFIED
:DEGREES
187
root 3.16687 16.6233 3.85103 -178.834 19.1848 547.615
lowerback 13.8182 -2.27022 2.0804
upperback 2.76786 -2.43965 0.158041
thorax -4.902 -1.11865 -0.582855
lowerneck -5.68682 7.18497 2.54553
upperneck -1.60513 10.1314 -14.2492
head 1.35289 5.09598 -4.32109
rclavicle 2.50469e-014 -9.54166e-015
rhumerus -52.1502 15.8623 -99.2983
rradius 88.9726
rwrist 0.300644
rhand -24.6955 32.294
rfingers 7.12502
rthumb 1.80568 2.32193
lclavicle 2.50469e-014 -9.54166e-015
lhumerus -71.9996 -3.25626 101.257
lradius 101.833
lwrist 14.3937
lhand -7.3284 -9.77373
lfingers 7.12502
lthumb 18.555 19.3613
rfemur 1.60349 10.1234 17.9847
rtibia 37.187
rfoot -22.85 -0.684541
rtoes -26.8187
lfemur -30.2607 5.28766 -26.5146
ltibia 99.0548
lfoot -8.83456 -2.8241
ltoes -3.30513
188
root 3.25407 16.7379 3.54646 -178.779 18.6972 547.201
lowerback 13.4234 -1.86768 1.59389
upperback 2.5822 -2.01566 0.00755459
thorax -4.85735 -0.915444 -0.549945
lowerneck -5.70546 7.37715 2.79397
upperneck -0.882976 10.4466 -14.2263
head 1.60642 5.21214 -4.31947
rclavicle -2.70347e-014 8.74653e-015
rhumerus -52.4037 16.588 -100.17
rradius 90.6811
rwrist 0.502302
rhand -24.442 32.4167
rfingers 7.12502
rthumb 2.05051 2.44681
lclavicle -2.70347e-014 8.74653e-015
lhumerus -72.9144 -3.82621 101.369
lradius 102.516
lwrist 14.9382
lhand -6.9753 -9.96656
lfingers 7.12502
lthumb 18.8946 19.1358
rfemur 2.57192 10.0406 17.8678
rtibia 36.5809
rfoot -19.9973 -1.58809
rtoes -26.6501
lfemur -31.0282 5.13499 -27.553
ltibia 96.4407
lfoot -9.24187 -3.10094
ltoes -2.9963
189
root 3.34043 16.8642 3.23526 -178.659 18.1881 546.811
lowerback 13.0187 -1.48422 1.06044
upperback 2.30734 -1.62218 -0.102607
thorax -4.90254 -0.728586 -0.437709
lowerneck -5.58267 7.56389 2.96771
upperneck -0.131184 10.7579 -14.1153
head 1.83633 5.33227 -4.28471
rclavicle -4.11484e-014 1.43125e-014
rhumerus -52.9581 17.1738 -100.945
rradius 92.3492
rwrist 0.882713
rhand -24.1104 32.5531
rfingers 7.12502
rthumb 2.37075 2.58651
lclavicle -4.11484e-014 1.43125e-014
lhumerus -73.9049 -4.15119 101.439
lradius 103.129
lwrist 15.4279
lhand -6.66305 -10.3531
lfingers 7.12502
lthumb 19.1949 18.7196
rfemur 3.43053 9.92154 17.7612
rtibia 35.9968
rfoot -16.8506 -2.63302
rtoes -26.0959
lfemur -31.6314 4.92099 -28.5167
ltibia 93.5117
lfoot -9.57114 -3.32368
ltoes -3.1768
190
root 3.42636 16.9943 2.92344 -178.582 17.6211 546.474
lowerback 12.7114 -1.10442 0.585424
upperback 2.05961 -1.21556 -0.227658
thorax -4.97883 -0.532296 -0.371925
lowerneck -5.60878 7.77509 3.01312
upperneck 0.785293 11.0972 -13.6586
head 2.11334 5.4552 -4.11609
rclavicle 9.14409e-015 2.3059e-014
rhumerus -53.4666 17.6522 -101.622
rradius 93.9084
rwrist 1.30809
rhand -23.9466 32.5488
rfingers 7.12502
rthumb 2.52893 2.58404
lclavicle 9.14409e-015 2.3059e-014
lhumerus -74.9129 -4.52451 101.495
lradius 103.755
lwrist 15.793
lhand -6.60395 -10.6695
lfingers 7.12502
lthumb 19.2517 18.3976
rfemur 4.34707 9.68918 17.6957
rtibia 35.3741
rfoot -13.5615 -3.7328
rtoes -25.3238
lfemur -31.9732 4.66254 -29.3426
ltibia 90.301
lfoot -9.77517 -3.64864
ltoes -3.61344
191
root 3.51425 17.1246 2.60836 -178.439 17.0065 546.184
lowerback 12.388 -0.776617 0.100268
upperback 1.78706 -0.876537 -0.342497
thorax -5.0764 -0.368082 -0.276403
lowerneck -5.68286 7.96653 3.44966
upperneck 1.69037 11.4213 -13.6263
head 2.44266 5.57232 -4.13175
rclavicle -6.16232e-015 -1.59028e-014
rhumerus -53.9371 18.3918 -102.265
rradius 95.2745
rwrist 1.45422
rhand -23.9281 32.3598
rfingers 7.12502
rthumb 2.54677 2.39522
lclavicle -6.16232e-015 -1.59028e-014
lhumerus -75.8137 -4.64177 101.393
lradius 104.29
lwrist 16.1231
lhand -6.37324 -10.9762
lfingers 7.12502
lthumb 19.4735 18.0686
rfemur 5.1856 9.30128 17.6479
rtibia 34.6913
rfoot -10.1559 -4.87001
rtoes -24.2778
lfemur -32.2686 4.48305 -29.9976
ltibia 86.8997
lfoot -9.87781 -4.15318
ltoes -4.49684
192
root 3.60104 17.2607 2.28869 -178.321 16.3724 545.901
lowerback 12.1189 -0.463225 -0.390297
upperback 1.48329 -0.554276 -0.452522
thorax -5.2404 -0.210218 -0.168072
lowerneck -5.66563 8.10836 3.78539
upperneck 2.55231 11.6943 -13.6147
head 2.73697 5.67458 -4.14529
rclavicle -5.28767e-014 -3.18055e-015
rhumerus -54.3885 19.1702 -102.892
rradius 96.3966
rwrist 1.42442
rhand -23.9235 32.1304
rfingers 7.12502
rthumb 2.55123 2.16589
lclavicle -5.28767e-014 -3.18055e-015
lhumerus -76.7316 -4.75259 101.275
lradius 104.762
lwrist 16.31
lhand -6.33099 -11.3185
lfingers 7.12502
lthumb 19.5142 17.7223
rfemur 6.00119 8.72231 17.5425
rtibia 33.9781
rfoot -6.69104 -6.03938
rtoes -23.5985
lfemur -32.4076 4.43885 -30.5552
ltibia 83.2975
lfoot -9.82672 -4.77815
ltoes -5.92648
193
root 3.6854 17.3906 1.96594 -178.195 15.7116 545.708
lowerback 11.8266 -0.173861 -0.786984
upperback 1.21924 -0.243994 -0.538272
thorax -5.35377 -0.0570581 -0.0847913
lowerneck -5.67415 8.21704 3.88481
upperneck 3.31092 11.9223 -13.4687
head 2.97956 5.76211 -4.08601
rclavicle 1.27222e-014 1.51076e-014
rhumerus -54.8854 19.9894 -103.415
rradius 97.5529
rwrist 1.3325
rhand -24.0805 31.8252
rfingers 7.12502
rthumb 2.39962 1.85898
lclavicle 1.27222e-014 1.51076e-014
lhumerus -77.4775 -4.91342 101.175
lradius 105.166
lwrist 16.5774
lhand -6.26025 -11.2821
lfingers 7.12502
lthumb 19.5822 17.7517
rfemur 6.78907 7.95721 17.4374
rtibia 33.3133
rfoot -3.50413 -7.01894
rtoes -23.2307
lfemur -32.4092 4.5088 -30.9794
ltibia 79.5524
lfoot -9.57682 -5.42639
ltoes -7.65897
194
root 3.77059 17.5077 1.64296 -178.014 15.0431 545.546
lowerback 11.4651 0.0866419 -1.09269
upperback 0.947729 0.0400712 -0.684705
thorax -5.43901 0.0818033 -0.110978
lowerneck -5.69908 8.30727 3.9862
upperneck 4.03141 12.1199 -13.3012
head 3.21004 5.8377 -4.02249
rclavicle 2.72335e-014 -4.53229e-014
rhumerus -55.3348 20.7977 -104.031
rradius 98.5219
rwrist 0.979782
rhand -24.2621 31.7378
rfingers 7.12502
rthumb 2.22425 1.76963
lclavicle 2.72335e-014 -4.53229e-014
lhumerus -78.2025 -5.12623 100.932
lradius 105.503
lwrist 16.841
lhand -6.30748 -11.3533
lfingers 7.12502
lthumb 19.5368 17.6852
rfemur 7.52436 7.18678 17.3474
rtibia 32.7983
rfoot -0.823354 -7.91384
rtoes -23.026
lfemur -32.3358 4.64206 -31.3674
ltibia 75.7234
lfoot -9.13107 -6.02583
ltoes -8.84453
195
root 3.85654 17.6054 1.32107 -177.874 14.3781 545.457
lowerback 11.0857 0.318342 -1.3586
upperback 0.753144 0.302363 -0.775954
thorax -5.43414 0.211768 -0.0964962
lowerneck -5.62841 8.38922 3.85232
upperneck 4.58093 12.3079 -13.0844
head 3.35583 5.92047 -3.91609
rclavicle 4.09496e-014 4.77083e-015
rhumerus -55.7443 21.6586 -104.51
rradius 99.3316
rwrist 0.613101
rhand -24.4947 31.7859
rfingers 7.12502
rthumb 1.99963 1.81555
lclavicle 4.09496e-014 4.77083e-015
lhumerus -78.5841 -5.23033 100.684
lradius 105.813
lwrist 16.997
lhand -6.28412 -11.0308
lfingers 7.12502
lthumb 19.5592 18.0053
rfemur 8.30046 6.33402 17.2758
rtibia 32.4924
rfoot 1.44295 -8.57198
rtoes -22.389
lfemur -32.0528 4.83034 -31.6819
ltibia 71.8091
lfoot -8.66512 -6.45471
ltoes -9.31718
196
root 3.94059 17.6828 0.999273 -177.65 13.688 545.432
lowerback 10.5974 0.512079 -1.48652
upperback 0.555734 0.533495 -0.906494
thorax -5.37029 0.322825 -0.192999
lowerneck -5.35065 8.43644 3.80181
upperneck 4.90357 12.4189 -12.92
head 3.401 5.9814 -3.85768
rclavicle 3.37934e-015 -2.06736e-014
rhumerus -56.2331 22.3231 -105.095
rradius 99.9703
rwrist 0.274761
rhand -24.695 32.1865
rfingers 7.12502
rthumb 1.80617 2.21439
lclavicle 3.37934e-015 -2.06736e-014
lhumerus -78.7187 -5.37743 100.325
lradius 106.048
lwrist 17.1345
lhand -6.26994 -10.711
lfingers 7.12502
lthumb 19.5728 18.3238
rfemur 8.94756 5.47419 17.2466
rtibia 32.4049
rfoot 3.23976 -9.13662
rtoes -21.3609
lfemur -31.7635 4.92927 -31.9513
ltibia 67.8833
lfoot -8.26157 -6.53453
ltoes -9.52653
197
root 4.0236 17.7464 0.673734 -177.474 12.9762 545.491
lowerback 10.1233 0.695995 -1.43628
upperback 0.425253 0.77809 -1.05441
thorax -5.24085 0.437584 -0.406817
lowerneck -5.04761 8.44125 3.64866
upperneck 5.14217 12.4576 -12.6659
head 3.39837 6.01115 -3.7653
rclavicle -3.47873e-014 -4.13472e-014
rhumerus -56.7595 22.8502 -105.573
rradius 100.515
rwrist -0.0165808
rhand -24.9593 32.8794
rfingers 7.12502
rthumb 1.55083 2.90526
lclavicle -3.47873e-014 -4.13472e-014
lhumerus -78.9414 -5.50747 99.9266
lradius 106.365
lwrist 17.1893
lhand -6.33665 -10.5792
lfingers 7.12502
lthumb 19.5087 18.4621
rfemur 9.63083 4.50377 17.2341
rtibia 32.4987
rfoot 4.57801 -9.52654
rtoes -20.341
lfemur -31.3525 4.99427 -32.1304
ltibia 63.9668
lfoot -8.04457 -6.33549
ltoes -9.97777
